<?xml version="1.0" encoding="utf-8"?>
<!-- Generator: Adobe Illustrator 27.1.1, SVG Export Plug-In . SVG Version: 6.00 Build 0)  -->
<svg version="1.1" id="Capa_1" xmlns="http://www.w3.org/2000/svg" xmlns:xlink="http://www.w3.org/1999/xlink" x="0px" y="0px"
	 viewBox="0 0 1295.4 400.9" style="enable-background:new 0 0 1295.4 400.9;" xml:space="preserve">
<style type="text/css">
	.st0{fill:#FFFFFF;}
	.st1{fill:url(#SVGID_1_);}
	.st2{fill:url(#SVGID_00000096021740546309552960000001160612052280787390_);}
	.st3{fill:url(#SVGID_00000023983871633167999360000012652341006605602466_);}
</style>
<g>
	<path class="st0" d="M1145,125.9l62,4.8c0.2,0,0.4,0,0.5,0c3.9,0,7-3.2,7-7V96.9c0-3.9-3.2-7-7-7c-0.2,0-0.4,0-0.5,0l-62,4.8
		c-3.6,0.3-6.5,3.4-6.5,7v17.2C1138.5,122.5,1141.3,125.6,1145,125.9z"/>
	<path class="st0" d="M98.5,204.2c8.8-5.3,19-8,30.3-8c8.9,0,17.1,1.7,24.5,5c7.4,3.3,13.7,7.9,19,13.8l2.3,2.6
		c1,1.2,2.8,1.2,3.9,0.1l26-26c1.1-1.1,1.1-2.8,0-3.8l-2.3-2.3c-9.2-9-20.1-16.2-32.5-21.3c-12.4-5.1-26.2-7.7-40.8-7.7
		c-19.5,0-37.2,4.5-52.6,13.3c-15.4,8.8-27.7,21.1-36.5,36.5c-8.8,15.4-13.3,33.1-13.3,52.6c0,19.5,4.5,37.2,13.3,52.6
		c8.8,15.4,21.1,27.7,36.5,36.5c15.4,8.8,33.1,13.3,52.6,13.3c14.7,0,28.4-2.6,40.8-7.7c12.4-5.1,23.4-12.3,32.5-21.5l2.3-2.3
		c1.1-1.1,1.1-2.8,0-3.8l-26-25.8c-1.1-1.1-2.9-1-3.9,0.1l-2.3,2.5c-5.2,5.8-11.6,10.4-19,13.8c-7.4,3.3-15.6,5-24.5,5
		c-11.3,0-21.5-2.7-30.3-8c-8.8-5.4-15.9-12.9-21-22.3c-5.1-9.5-7.7-20.4-7.7-32.4c0-12.2,2.6-23.1,7.7-32.5
		C82.6,217,89.7,209.5,98.5,204.2z"/>
	<path class="st0" d="M459.3,357.6h38c1.5,0,2.7-1.2,2.7-2.7V37.4c0-1.5-1.2-2.7-2.7-2.7h-38c-1.5,0-2.7,1.2-2.7,2.7v317.4
		C456.6,356.4,457.8,357.6,459.3,357.6z"/>
	<path class="st0" d="M602.4,204.2c8.8-5.3,19-8,30.3-8c8.9,0,17.1,1.7,24.5,5c7.4,3.3,13.7,7.9,19,13.8l2.3,2.6
		c1,1.2,2.8,1.2,3.9,0.1l26-26c1.1-1.1,1.1-2.8,0-3.8l-2.3-2.3c-9.2-9-20.1-16.2-32.5-21.3c-12.4-5.1-26.2-7.7-40.8-7.7
		c-19.5,0-37.2,4.5-52.6,13.3c-15.4,8.8-27.7,21.1-36.5,36.5c-8.8,15.4-13.3,33.1-13.3,52.6c0,19.5,4.5,37.2,13.3,52.6
		c8.8,15.4,21.1,27.7,36.5,36.5c15.4,8.8,33.1,13.3,52.6,13.3c14.7,0,28.4-2.6,40.8-7.7c12.4-5.1,23.4-12.3,32.6-21.5l2.3-2.3
		c1.1-1.1,1.1-2.8,0-3.8l-26-25.8c-1.1-1.1-2.9-1-3.9,0.1l-2.3,2.5c-5.2,5.8-11.6,10.4-19,13.8c-7.4,3.3-15.6,5-24.5,5
		c-11.3,0-21.5-2.7-30.3-8c-8.8-5.4-15.9-12.9-21-22.3c-5.1-9.5-7.7-20.4-7.7-32.4c0-12.2,2.6-23.1,7.7-32.5
		C586.5,217,593.6,209.5,602.4,204.2z"/>
	<path class="st0" d="M777.2,204.4c0.6,0.6,1.6,0.8,2.4,0.4c12.9-5.8,25.1-8.7,36.4-8.7c14.1,0,25.3,4,33.2,11.8
		c6,6,9.7,13.8,11.2,23.4c0.3,1.9-1.5,3.5-3.3,3c-12.8-3.1-25.8-4.6-38.9-4.6c-25.7,0-46.5,5.9-61.9,17.6
		c-15.9,12.1-23.9,28.5-23.9,49c0,19.3,7,35.1,20.9,47.1c13.6,11.8,31.4,17.8,52.9,17.8c14.9,0,28.2-3,39.6-8.9
		c6.6-3.4,12.5-7.7,17.6-12.6l0.9,15.3c0.1,1.4,1.3,2.5,2.7,2.5h33.9c1.5,0,2.7-1.2,2.7-2.7V242.2c0-25.7-7.7-46.7-22.9-62.2
		c-15.3-15.6-35.8-23.5-61.1-23.5c-12.1,0-23.6,1.5-34.2,4.4c-9.8,2.7-21.8,7.5-33.7,13.6c-1.3,0.7-1.6,2.4-0.5,3.5L777.2,204.4z
		 M775.7,296.4c0-8.4,3.4-14.5,10.8-19.2c8-5.1,19.6-7.7,34.5-7.7c13.5,0,27,2,40.1,5.9v0.7c0,8.4-2.2,16.2-6.7,22.9
		c-4.5,6.9-10.7,12.5-18.4,16.6c-7.8,4.1-16.7,6.2-26.6,6.2c-10.6,0-19.1-2.4-25.2-7.3C778.4,309.8,775.7,304,775.7,296.4z"/>
	<path class="st0" d="M1005.2,102.3c0-7.2,1.6-13.2,4.8-18.1c4.9-7.4,14-11,22.6-9.4c4.7,0.9,8.5,3.2,11.8,7.1l2.6,3
		c1.3,1.5,3.7,1.6,5.1,0.2l22.3-22.3c1.4-1.4,1.4-3.6,0-4.9l-6.4-6.5c-3.1-3.2-6.6-6-10.5-8.2c-3.4-1.9-7-3.6-10.9-5
		c-6.7-2.4-14.1-3.6-22-3.6c-18.2,0-33.3,6.4-44.8,18.9c-11.4,12.4-17.1,28.7-17.1,48.6v54.2h-27.9c-1.5,0-2.7,1.2-2.7,2.7v34.3
		c0,1.5,1.2,2.7,2.7,2.7h27.9v158.7c0,1.5,1.2,2.7,2.7,2.7h37c1.5,0,2.7-1.2,2.7-2.7V196.1h47c1.5,0,2.7-1.2,2.7-2.7v-34.3
		c0-1.5-1.2-2.7-2.7-2.7h-47V102.3z"/>
	<path class="st0" d="M1224.9,309.5c-1.2-1.2-3.1-1.4-4.6-0.5c-4.7,2.9-9.7,5.3-14.8,7.1c-10.5,3.7-20.5,5.5-29.8,5.5
		c-16.6,0-30.9-4.9-42.5-14.5c-8.8-7.2-15.1-16.1-18.9-26.4c-0.7-1.8,0.6-3.7,2.5-3.7h149.3c1.5,0,2.7-1.2,2.7-2.7v-15.6
		c0-19.6-4.3-37.3-12.8-52.6c-8.5-15.3-20.4-27.6-35.4-36.4c-15-8.8-32.3-13.2-51.6-13.2c-19.3,0-36.8,4.4-52.1,13.2
		c-15.3,8.8-27.6,21-36.3,36.2c-8.8,15.2-13.2,32.8-13.2,52c0,19.8,4.7,37.7,14.1,53.3c9.4,15.6,22.4,27.9,38.9,36.8
		c16.4,8.8,35.3,13.2,56.2,13.2c13,0,26.7-2.2,40.6-6.6c10.9-3.4,21.8-9,32.7-16.8c1.1-0.8,1.2-2.3,0.3-3.2L1224.9,309.5z
		 M1130.8,210.1c10.5-9.3,23.3-14,38.2-14c14.6,0,27.1,4.6,37.2,13.8c7.7,7,13.2,15.6,16.6,25.8c0.6,1.8-0.7,3.6-2.6,3.6h-103.9
		c-1.9,0-3.2-1.8-2.5-3.6C1117.2,225.7,1122.9,217.2,1130.8,210.1z"/>
	<g>
		<path class="st0" d="M1268.9,331.4"/>
	</g>
	<g>
		<path class="st0" d="M1268.9,331.4"/>
	</g>
	<g>
		
			<linearGradient id="SVGID_1_" gradientUnits="userSpaceOnUse" x1="-3474.5005" y1="3960.5813" x2="-3474.5005" y2="4153.4438" gradientTransform="matrix(-4.489700e-11 1 1 4.489700e-11 -3733.2097 3733.2097)">
			<stop  offset="0.1403" style="stop-color:#FFFFFF;stop-opacity:0.1"/>
			<stop  offset="0.9982" style="stop-color:#FFFFFF"/>
		</linearGradient>
		<path class="st1" d="M323.8,355.1c-53.2,0-96.4-43.3-96.4-96.4c0-53.2,43.3-96.4,96.4-96.4c53.2,0,96.4,43.3,96.4,96.4
			C420.2,311.9,377,355.1,323.8,355.1z M323.8,209.2c-27.3,0-49.5,22.2-49.5,49.5c0,27.3,22.2,49.5,49.5,49.5s49.5-22.2,49.5-49.5
			C373.3,231.4,351.1,209.2,323.8,209.2z"/>
	</g>
	<g>
		
			<linearGradient id="SVGID_00000101813148685032522280000008616380566049095566_" gradientUnits="userSpaceOnUse" x1="-4380.7397" y1="6130.8491" x2="-4380.7397" y2="5916.1494" gradientTransform="matrix(0.7071 0.7071 0.7071 -0.7071 -808.1918 7645.4087)">
			<stop  offset="3.356911e-02" style="stop-color:#FFFFFF"/>
			<stop  offset="0.9945" style="stop-color:#FFFFFF;stop-opacity:0"/>
		</linearGradient>
		<path style="fill:url(#SVGID_00000101813148685032522280000008616380566049095566_);" d="M323.8,366.2c-27.5,0-55-10.5-75.9-31.4
			c-9.2-9.2-9.2-24.2,0-33.4c9.2-9.2,24.2-9.2,33.4,0c23.5,23.5,61.6,23.5,85.1,0c11.4-11.4,17.6-26.5,17.6-42.5
			c0-16.1-6.3-31.2-17.6-42.5c-9.2-9.2-9.2-24.2,0-33.4s24.2-9.2,33.4,0c41.9,41.9,41.9,110,0,151.8
			C378.8,355.7,351.3,366.2,323.8,366.2z"/>
	</g>
	<g>
		
			<linearGradient id="SVGID_00000181781721220194097780000002314082818819171982_" gradientUnits="userSpaceOnUse" x1="-4464.4922" y1="5916.1494" x2="-4464.4922" y2="6130.8491" gradientTransform="matrix(0.7071 0.7071 0.7071 -0.7071 -808.1918 7645.4087)">
			<stop  offset="3.356911e-02" style="stop-color:#FFFFFF"/>
			<stop  offset="0.9972" style="stop-color:#FFFFFF;stop-opacity:0"/>
		</linearGradient>
		<path style="fill:url(#SVGID_00000181781721220194097780000002314082818819171982_);" d="M264.6,341.7c-6,0-12.1-2.3-16.7-6.9
			c-41.9-41.9-41.9-110,0-151.8c41.9-41.9,110-41.9,151.8,0c9.2,9.2,9.2,24.2,0,33.4c-9.2,9.2-24.2,9.2-33.4,0
			c-23.5-23.5-61.6-23.5-85.1,0c-11.4,11.4-17.6,26.5-17.6,42.5c0,16.1,6.3,31.2,17.6,42.5c9.2,9.2,9.2,24.2,0,33.4
			C276.7,339.4,270.6,341.7,264.6,341.7z"/>
	</g>
</g>
</svg>
