<?xml version="1.0" encoding="utf-8"?>
<!-- Generator: Adobe Illustrator 27.1.1, SVG Export Plug-In . SVG Version: 6.00 Build 0)  -->
<svg version="1.1" id="Capa_1" xmlns="http://www.w3.org/2000/svg" xmlns:xlink="http://www.w3.org/1999/xlink" x="0px" y="0px"
	 viewBox="0 0 1295.4 400.9" style="enable-background:new 0 0 1295.4 400.9;" xml:space="preserve">
<style type="text/css">
	.st0{fill:#E1251B;}
	.st1{fill:url(#SVGID_1_);}
	.st2{fill:url(#SVGID_00000016053954473233589240000017515247504824335522_);}
	.st3{fill:url(#SVGID_00000066475679506658020810000002875738223137997479_);}
</style>
<g>
	<path class="st0" d="M1138.2,126.8l61.2,4.7c0.2,0,0.4,0,0.5,0c3.8,0,6.9-3.1,6.9-6.9V98.2c0-3.8-3.1-6.9-6.9-6.9
		c-0.2,0-0.4,0-0.5,0l-61.2,4.7c-3.6,0.3-6.4,3.3-6.4,6.9v17C1131.8,123.5,1134.6,126.6,1138.2,126.8z"/>
	<path class="st0" d="M106,204.1c8.7-5.3,18.7-7.9,29.9-7.9c8.8,0,16.9,1.6,24.2,4.9c7.3,3.2,13.5,7.8,18.7,13.6l2.2,2.5
		c1,1.1,2.8,1.2,3.9,0.1l25.7-25.7c1-1,1-2.7,0-3.8l-2.3-2.2c-9-8.9-19.8-16-32.1-21c-12.2-5-25.8-7.6-40.3-7.6
		c-19.3,0-36.7,4.4-51.9,13.1c-15.2,8.7-27.3,20.8-36,36c-8.7,15.2-13.1,32.6-13.1,51.9c0,19.3,4.4,36.7,13.1,51.9
		c8.7,15.2,20.8,27.3,36,36c15.2,8.7,32.6,13.1,51.9,13.1c14.5,0,28-2.5,40.3-7.6c12.3-5,23.1-12.2,32.1-21.2l2.2-2.2
		c1-1,1-2.7,0-3.8l-25.7-25.4c-1.1-1.1-2.8-1-3.8,0.1l-2.2,2.5c-5.2,5.7-11.5,10.3-18.8,13.6c-7.3,3.3-15.4,5-24.1,5
		c-11.2,0-21.3-2.7-29.9-7.9c-8.7-5.3-15.7-12.7-20.7-22c-5.1-9.3-7.6-20.1-7.6-32c0-12,2.6-22.8,7.6-32.1
		C90.3,216.8,97.3,209.4,106,204.1z"/>
	<path class="st0" d="M461.9,355.4h37.4c1.5,0,2.7-1.2,2.7-2.7V39.6c0-1.5-1.2-2.7-2.7-2.7h-37.4c-1.5,0-2.7,1.2-2.7,2.7v313.1
		C459.2,354.2,460.4,355.4,461.9,355.4z"/>
	<path class="st0" d="M603,204.1c8.7-5.3,18.7-7.9,29.9-7.9c8.8,0,16.9,1.6,24.2,4.9c7.3,3.2,13.6,7.8,18.7,13.6l2.2,2.5
		c1,1.1,2.8,1.2,3.9,0.1l25.7-25.7c1-1,1-2.7,0-3.8l-2.3-2.2c-9-8.9-19.8-16-32.1-21c-12.2-5-25.8-7.6-40.3-7.6
		c-19.3,0-36.7,4.4-51.9,13.1c-15.2,8.7-27.3,20.8-36,36c-8.7,15.2-13.1,32.6-13.1,51.9c0,19.3,4.4,36.7,13.1,51.9
		c8.7,15.2,20.8,27.3,36,36c15.2,8.7,32.6,13.1,51.9,13.1c14.5,0,28-2.5,40.3-7.6c12.3-5,23.1-12.2,32.1-21.2l2.2-2.2
		c1-1,1-2.7,0-3.8l-25.7-25.4c-1.1-1.1-2.8-1-3.8,0.1l-2.2,2.5c-5.2,5.7-11.5,10.3-18.8,13.6c-7.3,3.3-15.4,5-24.1,5
		c-11.2,0-21.3-2.7-29.9-7.9c-8.7-5.3-15.7-12.7-20.7-22c-5.1-9.3-7.6-20.1-7.6-32c0-12,2.6-22.8,7.6-32.1
		C587.4,216.8,594.3,209.4,603,204.1z"/>
	<path class="st0" d="M775.5,204.3c0.6,0.6,1.6,0.8,2.4,0.4c12.8-5.7,24.8-8.6,35.9-8.6c14,0,25,3.9,32.8,11.7
		c5.9,5.9,9.6,13.6,11,23.1c0.3,1.9-1.4,3.4-3.3,3c-12.6-3-25.5-4.6-38.4-4.6c-25.4,0-45.9,5.8-61.1,17.4
		c-15.7,11.9-23.6,28.2-23.6,48.3c0,19,6.9,34.7,20.6,46.5c13.4,11.6,31,17.5,52.2,17.5c14.7,0,27.8-3,39.1-8.8
		c6.5-3.4,12.3-7.5,17.3-12.5l0.9,15.1c0.1,1.4,1.2,2.5,2.7,2.5h33.4c1.5,0,2.7-1.2,2.7-2.7V241.6c0-25.4-7.6-46-22.6-61.4
		c-15-15.4-35.3-23.2-60.3-23.2c-11.9,0-23.3,1.5-33.8,4.3c-9.6,2.6-21.5,7.4-33.3,13.4c-1.3,0.7-1.6,2.4-0.5,3.4L775.5,204.3z
		 M774,295c0-8.3,3.4-14.3,10.7-19c7.9-5,19.4-7.6,34-7.6c13.3,0,26.6,1.9,39.6,5.8v0.7c0,8.3-2.2,15.9-6.6,22.6
		c-4.4,6.8-10.6,12.3-18.2,16.3c-7.7,4-16.5,6.1-26.2,6.1c-10.4,0-18.8-2.4-24.9-7.2C776.7,308.2,774,302.6,774,295z"/>
	<path class="st0" d="M1000.3,103.6c0-7.1,1.6-13.1,4.8-17.8c4.8-7.3,13.8-10.9,22.3-9.2c4.6,0.9,8.4,3.2,11.7,7l2.6,3
		c1.3,1.5,3.6,1.6,5,0.2l22-22c1.3-1.3,1.3-3.5,0-4.9l-6.3-6.4c-3.1-3.1-6.5-5.9-10.3-8.1c-3.3-1.9-6.9-3.6-10.8-4.9
		c-6.6-2.3-13.9-3.5-21.7-3.5c-18,0-32.8,6.3-44.2,18.6c-11.2,12.2-16.9,28.4-16.9,48v53.5h-27.5c-1.5,0-2.7,1.2-2.7,2.7v33.8
		c0,1.5,1.2,2.7,2.7,2.7h27.5v156.6c0,1.5,1.2,2.7,2.7,2.7h36.5c1.5,0,2.7-1.2,2.7-2.7V196.2h46.4c1.5,0,2.7-1.2,2.7-2.7v-33.8
		c0-1.5-1.2-2.7-2.7-2.7h-46.4V103.6z"/>
	<path class="st0" d="M1217.1,308c-1.2-1.2-3.1-1.4-4.5-0.5c-4.7,2.9-9.5,5.2-14.6,7c-10.3,3.6-20.2,5.4-29.4,5.4
		c-16.3,0-30.5-4.8-42-14.3c-8.6-7.1-14.9-15.9-18.6-26.1c-0.6-1.7,0.6-3.6,2.5-3.6h147.3c1.5,0,2.7-1.2,2.7-2.7v-15.4
		c0-19.3-4.3-36.8-12.6-51.9c-8.4-15.1-20.1-27.2-34.9-35.9c-14.8-8.7-31.9-13.1-50.9-13.1c-19,0-36.3,4.4-51.4,13
		c-15.1,8.7-27.2,20.7-35.8,35.7c-8.7,15-13,32.3-13,51.3c0,19.5,4.7,37.2,13.9,52.6c9.2,15.4,22.1,27.6,38.4,36.3
		c16.2,8.7,34.8,13,55.5,13c12.9,0,26.3-2.2,40.1-6.5c10.7-3.4,21.5-8.9,32.2-16.6c1-0.7,1.2-2.3,0.3-3.2L1217.1,308z M1124.2,210
		c10.3-9.2,23-13.8,37.7-13.8c14.4,0,26.8,4.6,36.7,13.6c7.6,6.9,13.1,15.4,16.3,25.4c0.6,1.7-0.7,3.5-2.5,3.5h-102.5
		c-1.8,0-3.1-1.8-2.5-3.5C1110.8,225.3,1116.4,216.9,1124.2,210z"/>
	<g>
		<path class="st0" d="M1260.5,329.6"/>
	</g>
	<g>
		<path class="st0" d="M1260.5,329.6"/>
	</g>
	<g>
		
			<linearGradient id="SVGID_1_" gradientUnits="userSpaceOnUse" x1="-3475.3203" y1="3966.3125" x2="-3475.3203" y2="4156.5459" gradientTransform="matrix(-4.489700e-11 1 1 4.489700e-11 -3733.2097 3733.2097)">
			<stop  offset="0.141" style="stop-color:#E0261D;stop-opacity:0.1"/>
			<stop  offset="0.9996" style="stop-color:#E0261D"/>
		</linearGradient>
		<path class="st1" d="M328.2,353c-52.4,0-95.1-42.7-95.1-95.1c0-52.4,42.7-95.1,95.1-95.1c52.4,0,95.1,42.7,95.1,95.1
			C423.3,310.3,380.7,353,328.2,353z M328.2,209.1c-26.9,0-48.8,21.9-48.8,48.8c0,26.9,21.9,48.8,48.8,48.8
			c26.9,0,48.8-21.9,48.8-48.8C377,231,355.1,209.1,328.2,209.1z"/>
	</g>
	<g>
		
			<linearGradient id="SVGID_00000137095139520605835290000003684731428152417668_" gradientUnits="userSpaceOnUse" x1="-4378.769" y1="6133.0898" x2="-4378.769" y2="5921.3174" gradientTransform="matrix(0.7071 0.7071 0.7071 -0.7071 -808.1918 7645.4087)">
			<stop  offset="3.358978e-02" style="stop-color:#E0261D"/>
			<stop  offset="0.9979" style="stop-color:#E0261D;stop-opacity:0"/>
		</linearGradient>
		<path style="fill:url(#SVGID_00000137095139520605835290000003684731428152417668_);" d="M328.2,364c-28.3,0-54.9-11-74.9-31
			c-9.1-9.1-9.1-23.8,0-32.9c9.1-9.1,23.8-9.1,32.9,0c11.2,11.2,26.1,17.4,42,17.4c15.8,0,30.7-6.2,42-17.4s17.4-26.1,17.4-42
			s-6.2-30.7-17.4-42c-9.1-9.1-9.1-23.8,0-32.9s23.8-9.1,32.9,0c41.3,41.3,41.3,108.5,0,149.7C383.1,352.9,356.5,364,328.2,364z"/>
	</g>
	<g>
		
			<linearGradient id="SVGID_00000179630882041230433900000007807965259402693766_" gradientUnits="userSpaceOnUse" x1="-4461.3794" y1="5921.3174" x2="-4461.3794" y2="6133.0898" gradientTransform="matrix(0.7071 0.7071 0.7071 -0.7071 -808.1918 7645.4087)">
			<stop  offset="0" style="stop-color:#E0261D"/>
			<stop  offset="0.9979" style="stop-color:#E0261D;stop-opacity:0"/>
		</linearGradient>
		<path style="fill:url(#SVGID_00000179630882041230433900000007807965259402693766_);" d="M269.8,339.8c-6,0-11.9-2.3-16.5-6.8
			c-41.3-41.3-41.3-108.5,0-149.7c20-20,46.6-31,74.9-31c28.3,0,54.9,11,74.9,31c9.1,9.1,9.1,23.8,0,32.9c-9.1,9.1-23.8,9.1-32.9,0
			c-11.2-11.2-26.1-17.4-42-17.4c-15.8,0-30.7,6.2-42,17.4c-11.2,11.2-17.4,26.1-17.4,42s6.2,30.7,17.4,42c9.1,9.1,9.1,23.8,0,32.9
			C281.7,337.5,275.8,339.8,269.8,339.8z"/>
	</g>
</g>
</svg>
